<svg xmlns="http://www.w3.org/2000/svg" xmlns:xlink="http://www.w3.org/1999/xlink" version="1.1" class="marks" width="182" height="84" viewBox="0 0 182 84"><rect width="182" height="84" fill="white"/><g fill="none" stroke-miterlimit="10" transform="translate(26,10)"><g class="mark-group role-frame root" role="graphics-object" aria-roledescription="group mark container"><g transform="translate(0,0)"><path class="background" aria-hidden="true" d="M0.5,0.5h150v50h-150Z" stroke="#ddd"/><g><g class="mark-group role-axis" aria-hidden="true"><g transform="translate(0.5,0.5)"><path class="background" aria-hidden="true" d="M0,0h0v0h0Z" pointer-events="none"/><g><g class="mark-rule role-axis-grid" pointer-events="none"><line transform="translate(0,50)" x2="150" y2="0" stroke="#ddd" stroke-width="1" opacity="1"/><line transform="translate(0,25)" x2="150" y2="0" stroke="#ddd" stroke-width="1" opacity="1"/><line transform="translate(0,0)" x2="150" y2="0" stroke="#ddd" stroke-width="1" opacity="1"/></g></g><path class="foreground" aria-hidden="true" d="" pointer-events="none" display="none"/></g></g><g class="mark-group role-axis" role="graphics-symbol" aria-roledescription="axis" aria-label="X-axis for a discrete scale with 18 values: 0, 1, 2, 3, 4, ending with 17"><g transform="translate(0.5,50.5)"><path class="background" aria-hidden="true" d="M0,0h0v0h0Z" pointer-events="none"/><g><g class="mark-rule role-axis-tick" pointer-events="none"><line transform="translate(4,0)" x2="0" y2="5" stroke="#888" stroke-width="1" opacity="1"/><line transform="translate(12,0)" x2="0" y2="5" stroke="#888" stroke-width="1" opacity="1"/><line transform="translate(20,0)" x2="0" y2="5" stroke="#888" stroke-width="1" opacity="1"/><line transform="translate(29,0)" x2="0" y2="5" stroke="#888" stroke-width="1" opacity="1"/><line transform="translate(37,0)" x2="0" y2="5" stroke="#888" stroke-width="1" opacity="1"/><line transform="translate(45,0)" x2="0" y2="5" stroke="#888" stroke-width="1" opacity="1"/><line transform="translate(54,0)" x2="0" y2="5" stroke="#888" stroke-width="1" opacity="1"/><line transform="translate(62,0)" x2="0" y2="5" stroke="#888" stroke-width="1" opacity="1"/><line transform="translate(70,0)" x2="0" y2="5" stroke="#888" stroke-width="1" opacity="1"/><line transform="translate(79,0)" x2="0" y2="5" stroke="#888" stroke-width="1" opacity="1"/><line transform="translate(87,0)" x2="0" y2="5" stroke="#888" stroke-width="1" opacity="1"/><line transform="translate(95,0)" x2="0" y2="5" stroke="#888" stroke-width="1" opacity="1"/><line transform="translate(104,0)" x2="0" y2="5" stroke="#888" stroke-width="1" opacity="1"/><line transform="translate(112,0)" x2="0" y2="5" stroke="#888" stroke-width="1" opacity="1"/><line transform="translate(120,0)" x2="0" y2="5" stroke="#888" stroke-width="1" opacity="1"/><line transform="translate(129,0)" x2="0" y2="5" stroke="#888" stroke-width="1" opacity="1"/><line transform="translate(137,0)" x2="0" y2="5" stroke="#888" stroke-width="1" opacity="1"/><line transform="translate(145,0)" x2="0" y2="5" stroke="#888" stroke-width="1" opacity="1"/></g><g class="mark-text role-axis-label" pointer-events="none"><text text-anchor="end" transform="translate(3.6666666666666714,7) rotate(270) translate(0,3)" font-family="sans-serif" font-size="10px" fill="#000" opacity="1">0</text><text text-anchor="end" transform="translate(12.000000000000005,7) rotate(270) translate(0,3)" font-family="sans-serif" font-size="10px" fill="#000" opacity="1">1</text><text text-anchor="end" transform="translate(20.33333333333334,7) rotate(270) translate(0,3)" font-family="sans-serif" font-size="10px" fill="#000" opacity="1">2</text><text text-anchor="end" transform="translate(28.66666666666667,7) rotate(270) translate(0,3)" font-family="sans-serif" font-size="10px" fill="#000" opacity="1">3</text><text text-anchor="end" transform="translate(37.00000000000001,7) rotate(270) translate(0,3)" font-family="sans-serif" font-size="10px" fill="#000" opacity="1">4</text><text text-anchor="end" transform="translate(45.33333333333334,7) rotate(270) translate(0,3)" font-family="sans-serif" font-size="10px" fill="#000" opacity="1">5</text><text text-anchor="end" transform="translate(53.66666666666667,7) rotate(270) translate(0,3)" font-family="sans-serif" font-size="10px" fill="#000" opacity="1">6</text><text text-anchor="end" transform="translate(62.00000000000001,7) rotate(270) translate(0,3)" font-family="sans-serif" font-size="10px" fill="#000" opacity="1">7</text><text text-anchor="end" transform="translate(70.33333333333334,7) rotate(270) translate(0,3)" font-family="sans-serif" font-size="10px" fill="#000" opacity="1">8</text><text text-anchor="end" transform="translate(78.66666666666667,7) rotate(270) translate(0,3)" font-family="sans-serif" font-size="10px" fill="#000" opacity="1">9</text><text text-anchor="end" transform="translate(87.00000000000001,7) rotate(270) translate(0,3)" font-family="sans-serif" font-size="10px" fill="#000" opacity="1">10</text><text text-anchor="end" transform="translate(95.33333333333334,7) rotate(270) translate(0,3)" font-family="sans-serif" font-size="10px" fill="#000" opacity="1">11</text><text text-anchor="end" transform="translate(103.66666666666667,7) rotate(270) translate(0,3)" font-family="sans-serif" font-size="10px" fill="#000" opacity="1">12</text><text text-anchor="end" transform="translate(112.00000000000001,7) rotate(270) translate(0,3)" font-family="sans-serif" font-size="10px" fill="#000" opacity="1">13</text><text text-anchor="end" transform="translate(120.33333333333334,7) rotate(270) translate(0,3)" font-family="sans-serif" font-size="10px" fill="#000" opacity="1">14</text><text text-anchor="end" transform="translate(128.66666666666669,7) rotate(270) translate(0,3)" font-family="sans-serif" font-size="10px" fill="#000" opacity="1">15</text><text text-anchor="end" transform="translate(137,7) rotate(270) translate(0,3)" font-family="sans-serif" font-size="10px" fill="#000" opacity="1">16</text><text text-anchor="end" transform="translate(145.33333333333337,7) rotate(270) translate(0,3)" font-family="sans-serif" font-size="10px" fill="#000" opacity="1">17</text></g><g class="mark-rule role-axis-domain" pointer-events="none"><line transform="translate(0,0)" x2="150" y2="0" stroke="#888" stroke-width="1" opacity="1"/></g></g><path class="foreground" aria-hidden="true" d="" pointer-events="none" display="none"/></g></g><g class="mark-group role-axis" role="graphics-symbol" aria-roledescription="axis" aria-label="Y-axis for a linear scale with values from 0.0 to 0.4"><g transform="translate(0.5,0.5)"><path class="background" aria-hidden="true" d="M0,0h0v0h0Z" pointer-events="none"/><g><g class="mark-rule role-axis-tick" pointer-events="none"><line transform="translate(0,50)" x2="-5" y2="0" stroke="#888" stroke-width="1" opacity="1"/><line transform="translate(0,25)" x2="-5" y2="0" stroke="#888" stroke-width="1" opacity="1"/><line transform="translate(0,0)" x2="-5" y2="0" stroke="#888" stroke-width="1" opacity="1"/></g><g class="mark-text role-axis-label" pointer-events="none"><text text-anchor="end" transform="translate(-7,53)" font-family="sans-serif" font-size="10px" fill="#000" opacity="1">0.0</text><text text-anchor="end" transform="translate(-7,28)" font-family="sans-serif" font-size="10px" fill="#000" opacity="1">0.2</text><text text-anchor="end" transform="translate(-7,3)" font-family="sans-serif" font-size="10px" fill="#000" opacity="1">0.4</text></g><g class="mark-rule role-axis-domain" pointer-events="none"><line transform="translate(0,50)" x2="0" y2="-50" stroke="#888" stroke-width="1" opacity="1"/></g></g><path class="foreground" aria-hidden="true" d="" pointer-events="none" display="none"/></g></g><g class="mark-rect role-mark marks" role="graphics-object" aria-roledescription="rect mark container"><path aria-label="digit: 0; frequency: 0" role="graphics-symbol" aria-roledescription="bar" d="M0.4166666666666714,50h7.500000000000001v0h-7.500000000000001Z" fill="#ac53af" opacity="1"/><path aria-label="digit: 1; frequency: 0.00487804878049" role="graphics-symbol" aria-roledescription="bar" d="M8.750000000000005,49.390243902439025h7.500000000000001v0.6097560975609753h-7.500000000000001Z" fill="#ac53af" opacity="1"/><path aria-label="digit: 2; frequency: 0.278048780488" role="graphics-symbol" aria-roledescription="bar" d="M17.08333333333334,15.243902439024387h7.500000000000001v34.75609756097561h-7.500000000000001Z" fill="#ac53af" opacity="1"/><path aria-label="digit: 3; frequency: 0" role="graphics-symbol" aria-roledescription="bar" d="M25.41666666666667,50h7.500000000000001v0h-7.500000000000001Z" fill="#ac53af" opacity="1"/><path aria-label="digit: 4; frequency: 0" role="graphics-symbol" aria-roledescription="bar" d="M33.75000000000001,50h7.500000000000001v0h-7.500000000000001Z" fill="#ac53af" opacity="1"/><path aria-label="digit: 5; frequency: 0" role="graphics-symbol" aria-roledescription="bar" d="M42.08333333333334,50h7.500000000000001v0h-7.500000000000001Z" fill="#ac53af" opacity="1"/><path aria-label="digit: 6; frequency: 0" role="graphics-symbol" aria-roledescription="bar" d="M50.41666666666667,50h7.500000000000001v0h-7.500000000000001Z" fill="#ac53af" opacity="1"/><path aria-label="digit: 7; frequency: 0" role="graphics-symbol" aria-roledescription="bar" d="M58.75000000000001,50h7.500000000000001v0h-7.500000000000001Z" fill="#ac53af" opacity="1"/><path aria-label="digit: 8; frequency: 0" role="graphics-symbol" aria-roledescription="bar" d="M67.08333333333334,50h7.500000000000001v0h-7.500000000000001Z" fill="#ac53af" opacity="1"/><path aria-label="digit: 9; frequency: 0" role="graphics-symbol" aria-roledescription="bar" d="M75.41666666666667,50h7.500000000000001v0h-7.500000000000001Z" fill="#ac53af" opacity="1"/><path aria-label="digit: 10; frequency: 0" role="graphics-symbol" aria-roledescription="bar" d="M83.75000000000001,50h7.500000000000001v0h-7.500000000000001Z" fill="#ac53af" opacity="1"/><path aria-label="digit: 11; frequency: 0" role="graphics-symbol" aria-roledescription="bar" d="M92.08333333333334,50h7.500000000000001v0h-7.500000000000001Z" fill="#ac53af" opacity="1"/><path aria-label="digit: 12; frequency: 0.00487804878049" role="graphics-symbol" aria-roledescription="bar" d="M100.41666666666667,49.390243902439025h7.500000000000001v0.6097560975609753h-7.500000000000001Z" fill="#ac53af" opacity="1"/><path aria-label="digit: 13; frequency: 0.0146341463415" role="graphics-symbol" aria-roledescription="bar" d="M108.75000000000001,48.170731707317074h7.500000000000001v1.8292682926829258h-7.500000000000001Z" fill="#ac53af" opacity="1"/><path aria-label="digit: 14; frequency: 0.112195121951" role="graphics-symbol" aria-roledescription="bar" d="M117.08333333333334,35.97560975609756h7.500000000000001v14.024390243902438h-7.500000000000001Z" fill="#ac53af" opacity="1"/><path aria-label="digit: 15; frequency: 0.112195121951" role="graphics-symbol" aria-roledescription="bar" d="M125.41666666666669,35.97560975609756h7.500000000000001v14.024390243902438h-7.500000000000001Z" fill="#ac53af" opacity="1"/><path aria-label="digit: 16; frequency: 0.380487804878" role="graphics-symbol" aria-roledescription="bar" d="M133.75,2.4390243902439046h7.500000000000001v47.5609756097561h-7.500000000000001Z" fill="#ac53af" opacity="1"/><path aria-label="digit: 17; frequency: 0.0926829268293" role="graphics-symbol" aria-roledescription="bar" d="M142.08333333333337,38.41463414634146h7.500000000000001v11.585365853658537h-7.500000000000001Z" fill="#ac53af" opacity="1"/></g></g><path class="foreground" aria-hidden="true" d="" display="none"/></g></g></g></svg>