<svg xmlns="http://www.w3.org/2000/svg" xmlns:xlink="http://www.w3.org/1999/xlink" version="1.1" class="marks" width="117" height="73" viewBox="0 0 117 73"><rect width="117" height="73" fill="white"/><g fill="none" stroke-miterlimit="10" transform="translate(26,5)"><g class="mark-group role-frame root" role="graphics-object" aria-roledescription="group mark container"><g transform="translate(0,0)"><path class="background" aria-hidden="true" d="M0.5,0.5h85v50h-85Z" stroke="#ddd"/><g><g class="mark-group role-axis" aria-hidden="true"><g transform="translate(0.5,0.5)"><path class="background" aria-hidden="true" d="M0,0h0v0h0Z" pointer-events="none"/><g><g class="mark-rule role-axis-grid" pointer-events="none"><line transform="translate(0,50)" x2="85" y2="0" stroke="#ddd" stroke-width="1" opacity="1"/><line transform="translate(0,29)" x2="85" y2="0" stroke="#ddd" stroke-width="1" opacity="1"/><line transform="translate(0,8)" x2="85" y2="0" stroke="#ddd" stroke-width="1" opacity="1"/></g></g><path class="foreground" aria-hidden="true" d="" pointer-events="none" display="none"/></g></g><g class="mark-group role-axis" role="graphics-symbol" aria-roledescription="axis" aria-label="X-axis for a discrete scale with 10 values: 0, 1, 2, 3, 4, ending with 9"><g transform="translate(0.5,50.5)"><path class="background" aria-hidden="true" d="M0,0h0v0h0Z" pointer-events="none"/><g><g class="mark-rule role-axis-tick" pointer-events="none"><line transform="translate(4,0)" x2="0" y2="5" stroke="#888" stroke-width="1" opacity="1"/><line transform="translate(12,0)" x2="0" y2="5" stroke="#888" stroke-width="1" opacity="1"/><line transform="translate(21,0)" x2="0" y2="5" stroke="#888" stroke-width="1" opacity="1"/><line transform="translate(29,0)" x2="0" y2="5" stroke="#888" stroke-width="1" opacity="1"/><line transform="translate(38,0)" x2="0" y2="5" stroke="#888" stroke-width="1" opacity="1"/><line transform="translate(46,0)" x2="0" y2="5" stroke="#888" stroke-width="1" opacity="1"/><line transform="translate(55,0)" x2="0" y2="5" stroke="#888" stroke-width="1" opacity="1"/><line transform="translate(63,0)" x2="0" y2="5" stroke="#888" stroke-width="1" opacity="1"/><line transform="translate(72,0)" x2="0" y2="5" stroke="#888" stroke-width="1" opacity="1"/><line transform="translate(80,0)" x2="0" y2="5" stroke="#888" stroke-width="1" opacity="1"/></g><g class="mark-text role-axis-label" pointer-events="none"><text text-anchor="end" transform="translate(3.7499999999999973,7) rotate(270) translate(0,3)" font-family="sans-serif" font-size="10px" fill="#000" opacity="1">0</text><text text-anchor="end" transform="translate(12.249999999999996,7) rotate(270) translate(0,3)" font-family="sans-serif" font-size="10px" fill="#000" opacity="1">1</text><text text-anchor="end" transform="translate(20.749999999999996,7) rotate(270) translate(0,3)" font-family="sans-serif" font-size="10px" fill="#000" opacity="1">2</text><text text-anchor="end" transform="translate(29.249999999999996,7) rotate(270) translate(0,3)" font-family="sans-serif" font-size="10px" fill="#000" opacity="1">3</text><text text-anchor="end" transform="translate(37.75,7) rotate(270) translate(0,3)" font-family="sans-serif" font-size="10px" fill="#000" opacity="1">4</text><text text-anchor="end" transform="translate(46.25,7) rotate(270) translate(0,3)" font-family="sans-serif" font-size="10px" fill="#000" opacity="1">5</text><text text-anchor="end" transform="translate(54.75,7) rotate(270) translate(0,3)" font-family="sans-serif" font-size="10px" fill="#000" opacity="1">6</text><text text-anchor="end" transform="translate(63.25,7) rotate(270) translate(0,3)" font-family="sans-serif" font-size="10px" fill="#000" opacity="1">7</text><text text-anchor="end" transform="translate(71.75,7) rotate(270) translate(0,3)" font-family="sans-serif" font-size="10px" fill="#000" opacity="1">8</text><text text-anchor="end" transform="translate(80.25,7) rotate(270) translate(0,3)" font-family="sans-serif" font-size="10px" fill="#000" opacity="1">9</text></g><g class="mark-rule role-axis-domain" pointer-events="none"><line transform="translate(0,0)" x2="85" y2="0" stroke="#888" stroke-width="1" opacity="1"/></g></g><path class="foreground" aria-hidden="true" d="" pointer-events="none" display="none"/></g></g><g class="mark-group role-axis" role="graphics-symbol" aria-roledescription="axis" aria-label="Y-axis for a linear scale with values from 0.00 to 0.24"><g transform="translate(0.5,0.5)"><path class="background" aria-hidden="true" d="M0,0h0v0h0Z" pointer-events="none"/><g><g class="mark-rule role-axis-tick" pointer-events="none"><line transform="translate(0,50)" x2="-5" y2="0" stroke="#888" stroke-width="1" opacity="1"/><line transform="translate(0,29)" x2="-5" y2="0" stroke="#888" stroke-width="1" opacity="1"/><line transform="translate(0,8)" x2="-5" y2="0" stroke="#888" stroke-width="1" opacity="1"/></g><g class="mark-text role-axis-label" pointer-events="none"><text text-anchor="end" transform="translate(-7,53)" font-family="sans-serif" font-size="10px" fill="#000" opacity="1">0.0</text><text text-anchor="end" transform="translate(-7,32.166666666666664)" font-family="sans-serif" font-size="10px" fill="#000" opacity="1">0.1</text><text text-anchor="end" transform="translate(-7,11.333333333333332)" font-family="sans-serif" font-size="10px" fill="#000" opacity="1">0.2</text></g><g class="mark-rule role-axis-domain" pointer-events="none"><line transform="translate(0,50)" x2="0" y2="-50" stroke="#888" stroke-width="1" opacity="1"/></g></g><path class="foreground" aria-hidden="true" d="" pointer-events="none" display="none"/></g></g><g class="mark-rect role-mark marks" role="graphics-object" aria-roledescription="rect mark container"><path aria-label="digit: 0; frequency: 0.239397983393" role="graphics-symbol" aria-roledescription="bar" d="M0.42499999999999716,0.1254201265322219h7.65v49.87457987346778h-7.65Z" fill="#ffb727" opacity="1"/><path aria-label="digit: 1; frequency: 0.0811832740214" role="graphics-symbol" aria-roledescription="bar" d="M8.924999999999997,33.08681791221827h7.65v16.913182087781728h-7.65Z" fill="#ffb727" opacity="1"/><path aria-label="digit: 2; frequency: 0.0850385527877" role="graphics-symbol" aria-roledescription="bar" d="M17.424999999999997,32.28363483590352h7.65v17.71636516409648h-7.65Z" fill="#ffb727" opacity="1"/><path aria-label="digit: 3; frequency: 0.0858540925267" role="graphics-symbol" aria-roledescription="bar" d="M25.924999999999997,32.11373072360617h7.65v17.886269276393833h-7.65Z" fill="#ffb727" opacity="1"/><path aria-label="digit: 4; frequency: 0.0839264531435" role="graphics-symbol" aria-roledescription="bar" d="M34.425,32.515322261763544h7.65v17.484677738236456h-7.65Z" fill="#ffb727" opacity="1"/><path aria-label="digit: 5; frequency: 0.0917111506524" role="graphics-symbol" aria-roledescription="bar" d="M42.925,30.893510280743374h7.65v19.106489719256626h-7.65Z" fill="#ffb727" opacity="1"/><path aria-label="digit: 6; frequency: 0.0851868327402" role="graphics-symbol" aria-roledescription="bar" d="M51.425,32.252743179122184h7.65v17.747256820877816h-7.65Z" fill="#ffb727" opacity="1"/><path aria-label="digit: 7; frequency: 0.0838523131673" role="graphics-symbol" aria-roledescription="bar" d="M59.925,32.53076809015421h7.65v17.46923190984579h-7.65Z" fill="#ffb727" opacity="1"/><path aria-label="digit: 8; frequency: 0.0808867141163" role="graphics-symbol" aria-roledescription="bar" d="M68.425,33.148601225780936h7.65v16.851398774219064h-7.65Z" fill="#ffb727" opacity="1"/><path aria-label="digit: 9; frequency: 0.082962633452" role="graphics-symbol" aria-roledescription="bar" d="M76.925,32.71611803084223h7.65v17.28388196915777h-7.65Z" fill="#ffb727" opacity="1"/></g></g><path class="foreground" aria-hidden="true" d="" display="none"/></g></g></g></svg>